<svg width="56" height="75" viewBox="0 0 56 75" fill="none" xmlns="http://www.w3.org/2000/svg">
<path d="M0 28.125C0 12.592 12.536 0 28 0C43.464 0 56 12.592 56 28.125C56 36.0527 52.7315 43.2177 47.4804 48.3274C46.5333 49.2489 45.8042 50.2064 45.3659 51.2284L41.8096 59.521C41.441 60.3806 40.5985 60.9375 39.6667 60.9375C40.9553 60.9375 42 61.9868 42 63.2812C42 64.5757 40.9553 65.625 39.6667 65.625C40.9553 65.625 42 66.6743 42 67.9688C42 69.2632 40.9553 70.3125 39.6667 70.3125L38.6232 72.4088C37.8327 73.9969 36.2168 75 34.4492 75H21.5508C19.7832 75 18.1673 73.9969 17.3768 72.4088L16.3333 70.3125C15.0447 70.3125 14 69.2632 14 67.9688C14 66.6743 15.0447 65.625 16.3333 65.625C15.0447 65.625 14 64.5757 14 63.2812C14 61.9868 15.0447 60.9375 16.3333 60.9375C15.4015 60.9375 14.559 60.3806 14.1904 59.521L10.6341 51.2284C10.1958 50.2064 9.4667 49.2489 8.51963 48.3274C3.26851 43.2177 0 36.0527 0 28.125ZM28 4.6875C15.1134 4.6875 4.66667 15.1808 4.66667 28.125C4.66667 34.7321 7.38542 40.6974 11.7667 44.9606C12.992 46.1529 14.1617 47.6056 14.92 49.3739L17.8688 56.25H38.1312L41.08 49.3739C41.8383 47.6056 43.008 46.1529 44.2333 44.9606C48.6146 40.6974 51.3333 34.7322 51.3333 28.125C51.3333 15.1808 40.8866 4.6875 28 4.6875Z" fill="#001B2E"/>
</svg>
