<svg width="156" height="156" viewBox="0 0 156 156" fill="none" xmlns="http://www.w3.org/2000/svg">
<g filter="url(#filter0_d_209_927)">
<circle cx="78" cy="74" r="74" fill="white"/>
</g>
<path d="M95.1418 57.3518C96.9395 55.5494 99.8541 55.5494 101.652 57.3518C103.427 59.1321 103.449 62.005 101.717 63.8121L77.2143 94.5214C77.179 94.5657 77.1412 94.608 77.1012 94.6482C75.3035 96.4506 72.3889 96.4506 70.5912 94.6482L54.3483 78.3624C52.5506 76.5599 52.5506 73.6376 54.3483 71.8352C56.1459 70.0328 59.0605 70.0328 60.8582 71.8352L73.7075 84.7184L95.0197 57.4899C95.0576 57.4414 95.0984 57.3953 95.1418 57.3518Z" fill="#001B2E"/>
<defs>
<filter id="filter0_d_209_927" x="0" y="0" width="156" height="156" filterUnits="userSpaceOnUse" color-interpolation-filters="sRGB">
<feFlood flood-opacity="0" result="BackgroundImageFix"/>
<feColorMatrix in="SourceAlpha" type="matrix" values="0 0 0 0 0 0 0 0 0 0 0 0 0 0 0 0 0 0 127 0" result="hardAlpha"/>
<feOffset dy="4"/>
<feGaussianBlur stdDeviation="2"/>
<feComposite in2="hardAlpha" operator="out"/>
<feColorMatrix type="matrix" values="0 0 0 0 0 0 0 0 0 0 0 0 0 0 0 0 0 0 0.25 0"/>
<feBlend mode="normal" in2="BackgroundImageFix" result="effect1_dropShadow_209_927"/>
<feBlend mode="normal" in="SourceGraphic" in2="effect1_dropShadow_209_927" result="shape"/>
</filter>
</defs>
</svg>
