<svg width="62" height="62" viewBox="0 0 62 62" fill="none" xmlns="http://www.w3.org/2000/svg">
<path d="M50.375 3.875C54.6552 3.875 58.125 7.34479 58.125 11.625V50.375C58.125 54.6552 54.6552 58.125 50.375 58.125H11.625C7.34479 58.125 3.875 54.6552 3.875 50.375V11.625C3.875 7.34479 7.34479 3.875 11.625 3.875H50.375ZM11.625 0C5.20469 0 0 5.20469 0 11.625V50.375C0 56.7953 5.20469 62 11.625 62H50.375C56.7953 62 62 56.7953 62 50.375V11.625C62 5.20469 56.7953 0 50.375 0H11.625Z" fill="#001B2E"/>
<path d="M21.3125 15.5C21.3125 18.7102 18.7102 21.3125 15.5 21.3125C12.2898 21.3125 9.6875 18.7102 9.6875 15.5C9.6875 12.2898 12.2898 9.6875 15.5 9.6875C18.7102 9.6875 21.3125 12.2898 21.3125 15.5Z" fill="#001B2E"/>
<path d="M52.3125 15.5C52.3125 18.7102 49.7102 21.3125 46.5 21.3125C43.2898 21.3125 40.6875 18.7102 40.6875 15.5C40.6875 12.2898 43.2898 9.6875 46.5 9.6875C49.7102 9.6875 52.3125 12.2898 52.3125 15.5Z" fill="#001B2E"/>
<path d="M52.3125 46.5C52.3125 49.7102 49.7102 52.3125 46.5 52.3125C43.2898 52.3125 40.6875 49.7102 40.6875 46.5C40.6875 43.2898 43.2898 40.6875 46.5 40.6875C49.7102 40.6875 52.3125 43.2898 52.3125 46.5Z" fill="#001B2E"/>
<path d="M21.3125 46.5C21.3125 49.7102 18.7102 52.3125 15.5 52.3125C12.2898 52.3125 9.6875 49.7102 9.6875 46.5C9.6875 43.2898 12.2898 40.6875 15.5 40.6875C18.7102 40.6875 21.3125 43.2898 21.3125 46.5Z" fill="#001B2E"/>
<path d="M36.8125 31C36.8125 34.2102 34.2102 36.8125 31 36.8125C27.7898 36.8125 25.1875 34.2102 25.1875 31C25.1875 27.7898 27.7898 25.1875 31 25.1875C34.2102 25.1875 36.8125 27.7898 36.8125 31Z" fill="#001B2E"/>
</svg>
