<svg width="156" height="156" viewBox="0 0 156 156" fill="none" xmlns="http://www.w3.org/2000/svg">
<g filter="url(#filter0_d_209_924)">
<circle cx="78" cy="74" r="74" fill="white"/>
</g>
<path d="M50 67.125C50 51.592 62.536 39 78 39C93.464 39 106 51.592 106 67.125C106 75.0527 102.731 82.2177 97.4804 87.3274C96.5333 88.2489 95.8042 89.2064 95.3659 90.2284L91.8096 98.521C91.441 99.3806 90.5985 99.9375 89.6667 99.9375C90.9553 99.9375 92 100.987 92 102.281C92 103.576 90.9553 104.625 89.6667 104.625C90.9553 104.625 92 105.674 92 106.969C92 108.263 90.9553 109.312 89.6667 109.312L88.6232 111.409C87.8327 112.997 86.2168 114 84.4492 114H71.5508C69.7832 114 68.1673 112.997 67.3768 111.409L66.3333 109.312C65.0447 109.312 64 108.263 64 106.969C64 105.674 65.0447 104.625 66.3333 104.625C65.0447 104.625 64 103.576 64 102.281C64 100.987 65.0447 99.9375 66.3333 99.9375C65.4015 99.9375 64.559 99.3806 64.1904 98.521L60.6341 90.2284C60.1958 89.2064 59.4667 88.2489 58.5196 87.3274C53.2685 82.2177 50 75.0527 50 67.125ZM78 43.6875C65.1134 43.6875 54.6667 54.1808 54.6667 67.125C54.6667 73.7321 57.3854 79.6974 61.7667 83.9606C62.992 85.1529 64.1617 86.6056 64.92 88.3739L67.8688 95.25H88.1312L91.08 88.3739C91.8383 86.6056 93.008 85.1529 94.2333 83.9606C98.6146 79.6974 101.333 73.7322 101.333 67.125C101.333 54.1808 90.8866 43.6875 78 43.6875Z" fill="#001B2E"/>
<defs>
<filter id="filter0_d_209_924" x="0" y="0" width="156" height="156" filterUnits="userSpaceOnUse" color-interpolation-filters="sRGB">
<feFlood flood-opacity="0" result="BackgroundImageFix"/>
<feColorMatrix in="SourceAlpha" type="matrix" values="0 0 0 0 0 0 0 0 0 0 0 0 0 0 0 0 0 0 127 0" result="hardAlpha"/>
<feOffset dy="4"/>
<feGaussianBlur stdDeviation="2"/>
<feComposite in2="hardAlpha" operator="out"/>
<feColorMatrix type="matrix" values="0 0 0 0 0 0 0 0 0 0 0 0 0 0 0 0 0 0 0.25 0"/>
<feBlend mode="normal" in2="BackgroundImageFix" result="effect1_dropShadow_209_924"/>
<feBlend mode="normal" in="SourceGraphic" in2="effect1_dropShadow_209_924" result="shape"/>
</filter>
</defs>
</svg>
