<svg width="156" height="156" viewBox="0 0 156 156" fill="none" xmlns="http://www.w3.org/2000/svg">
<g filter="url(#filter0_d_209_925)">
<circle cx="78" cy="74" r="74" fill="white"/>
</g>
<path d="M97.375 46.875C101.655 46.875 105.125 50.3448 105.125 54.625V93.375C105.125 97.6552 101.655 101.125 97.375 101.125H58.625C54.3448 101.125 50.875 97.6552 50.875 93.375V54.625C50.875 50.3448 54.3448 46.875 58.625 46.875H97.375ZM58.625 43C52.2047 43 47 48.2047 47 54.625V93.375C47 99.7953 52.2047 105 58.625 105H97.375C103.795 105 109 99.7953 109 93.375V54.625C109 48.2047 103.795 43 97.375 43H58.625Z" fill="#001B2E"/>
<path d="M68.3125 58.5C68.3125 61.7102 65.7102 64.3125 62.5 64.3125C59.2898 64.3125 56.6875 61.7102 56.6875 58.5C56.6875 55.2898 59.2898 52.6875 62.5 52.6875C65.7102 52.6875 68.3125 55.2898 68.3125 58.5Z" fill="#001B2E"/>
<path d="M99.3125 58.5C99.3125 61.7102 96.7102 64.3125 93.5 64.3125C90.2898 64.3125 87.6875 61.7102 87.6875 58.5C87.6875 55.2898 90.2898 52.6875 93.5 52.6875C96.7102 52.6875 99.3125 55.2898 99.3125 58.5Z" fill="#001B2E"/>
<path d="M99.3125 89.5C99.3125 92.7102 96.7102 95.3125 93.5 95.3125C90.2898 95.3125 87.6875 92.7102 87.6875 89.5C87.6875 86.2898 90.2898 83.6875 93.5 83.6875C96.7102 83.6875 99.3125 86.2898 99.3125 89.5Z" fill="#001B2E"/>
<path d="M68.3125 89.5C68.3125 92.7102 65.7102 95.3125 62.5 95.3125C59.2898 95.3125 56.6875 92.7102 56.6875 89.5C56.6875 86.2898 59.2898 83.6875 62.5 83.6875C65.7102 83.6875 68.3125 86.2898 68.3125 89.5Z" fill="#001B2E"/>
<path d="M83.8125 74C83.8125 77.2102 81.2102 79.8125 78 79.8125C74.7898 79.8125 72.1875 77.2102 72.1875 74C72.1875 70.7898 74.7898 68.1875 78 68.1875C81.2102 68.1875 83.8125 70.7898 83.8125 74Z" fill="#001B2E"/>
<defs>
<filter id="filter0_d_209_925" x="0" y="0" width="156" height="156" filterUnits="userSpaceOnUse" color-interpolation-filters="sRGB">
<feFlood flood-opacity="0" result="BackgroundImageFix"/>
<feColorMatrix in="SourceAlpha" type="matrix" values="0 0 0 0 0 0 0 0 0 0 0 0 0 0 0 0 0 0 127 0" result="hardAlpha"/>
<feOffset dy="4"/>
<feGaussianBlur stdDeviation="2"/>
<feComposite in2="hardAlpha" operator="out"/>
<feColorMatrix type="matrix" values="0 0 0 0 0 0 0 0 0 0 0 0 0 0 0 0 0 0 0.25 0"/>
<feBlend mode="normal" in2="BackgroundImageFix" result="effect1_dropShadow_209_925"/>
<feBlend mode="normal" in="SourceGraphic" in2="effect1_dropShadow_209_925" result="shape"/>
</filter>
</defs>
</svg>
