<svg width="76" height="76" viewBox="0 0 76 76" fill="none" xmlns="http://www.w3.org/2000/svg">
<path d="M14.7822 17.3151C14.3745 13.1287 17.6647 9.5 21.8737 9.5L33.2503 9.50008C34.5619 9.50009 35.6252 10.5634 35.6252 11.8751V13.6898C35.6252 16.9947 33.2632 19.3051 31.4843 20.667C31.1759 20.9031 31.0143 21.1006 30.9376 21.2274C30.901 21.2881 30.8862 21.3282 30.8805 21.3476C30.8751 21.3655 30.8752 21.373 30.8752 21.3751C30.8752 21.3776 30.8754 21.3813 30.8768 21.388C30.8782 21.3951 30.8818 21.4097 30.8913 21.4328C30.9105 21.4797 30.9564 21.5676 31.06 21.6902C31.2767 21.9462 31.6832 22.2788 32.3449 22.6096C33.6695 23.2719 35.6656 23.7501 38.0002 23.7501C40.3348 23.7501 42.331 23.2719 43.6556 22.6096C44.3173 22.2788 44.7238 21.9462 44.9404 21.6902C45.0441 21.5676 45.09 21.4797 45.1092 21.4328C45.1186 21.4097 45.1223 21.3951 45.1237 21.388C45.1251 21.3813 45.1252 21.3776 45.1252 21.3751C45.1252 21.373 45.1253 21.3655 45.12 21.3476C45.1142 21.3282 45.0995 21.2881 45.0628 21.2275C44.9862 21.1006 44.8246 20.9031 44.5162 20.667C42.7373 19.3051 40.3752 16.9947 40.3752 13.6898V11.8751C40.3752 10.5634 41.4386 9.50008 42.7502 9.50008H54.1263C58.3352 9.50008 61.6255 13.1287 61.2178 17.3151L60.0612 30.875H61.1896C62.1148 30.875 63.1857 30.1764 64.3953 28.5965C65.3925 27.294 66.9046 26.125 68.875 26.125C71.5709 26.125 73.3722 28.2487 74.358 30.2203C75.4149 32.334 76 35.0879 76 38C76 40.9121 75.4149 43.6659 74.358 45.7796C73.3722 47.7512 71.5709 49.875 68.875 49.875C66.9046 49.875 65.3925 48.7059 64.3953 47.4034C63.1857 45.8235 62.1148 45.125 61.1896 45.125H60.0612L61.2178 58.6849C61.6255 62.8713 58.3352 66.5 54.1263 66.5H42.7502C41.4386 66.5 40.3752 65.4367 40.3752 64.125V62.3103C40.3752 59.0054 42.7373 56.695 44.5162 55.3331C44.8246 55.097 44.9862 54.8995 45.0628 54.7726C45.0995 54.712 45.1142 54.6719 45.12 54.6525C45.1253 54.6346 45.1252 54.6271 45.1252 54.625C45.1252 54.6224 45.1251 54.6188 45.1237 54.612C45.1223 54.605 45.1186 54.5904 45.1092 54.5672C45.09 54.5204 45.0441 54.4325 44.9404 54.3099C44.7238 54.0539 44.3173 53.7213 43.6556 53.3905C42.331 52.7282 40.3348 52.25 38.0002 52.25C35.6656 52.25 33.6695 52.7282 32.3449 53.3905C31.6832 53.7213 31.2767 54.0539 31.06 54.3099C30.9564 54.4325 30.9105 54.5204 30.8913 54.5672C30.8818 54.5904 30.8782 54.605 30.8768 54.612C30.8754 54.6188 30.8752 54.6224 30.8752 54.625C30.8752 54.6273 30.8752 54.6348 30.8805 54.6525C30.8862 54.6719 30.901 54.712 30.9376 54.7726C31.0143 54.8995 31.1759 55.097 31.4843 55.3331C33.2632 56.695 35.6252 59.0054 35.6252 62.3103V64.125C35.6252 64.7549 35.375 65.359 34.9296 65.8044C34.4842 66.2498 33.8801 66.5 33.2502 66.5L21.8737 66.4999C17.6648 66.4999 14.3746 62.8713 14.7822 58.6849L15.9388 45.1249H14.8104C13.8852 45.1249 12.8143 45.8234 11.6047 47.4033C10.6075 48.7059 9.09543 49.8749 7.125 49.8749C4.42911 49.8749 2.62779 47.7512 1.64198 45.7795C0.585131 43.6658 0 40.912 0 37.9999C0 35.0878 0.585131 32.3339 1.64198 30.2202C2.62779 28.2486 4.4291 26.1249 7.125 26.1249C9.09543 26.1249 10.6075 27.2939 11.6047 28.5964C12.8143 30.1763 13.8852 30.8749 14.8104 30.8749H15.9388L14.7822 17.3151ZM21.8737 14.25C20.4686 14.25 19.3707 15.4632 19.5105 16.8613L19.514 16.8958L20.8914 33.048C20.948 33.7106 20.7241 34.3665 20.2743 34.8563C19.8245 35.3461 19.19 35.6249 18.525 35.6249H14.8104C11.5054 35.6249 9.19503 33.2628 7.83313 31.4839C7.59706 31.1756 7.39949 31.0139 7.27267 30.9373C7.21201 30.9006 7.17193 30.8859 7.15254 30.8801C7.13486 30.8749 7.12739 30.8749 7.1251 30.8749C7.12258 30.8749 7.1188 30.875 7.11208 30.8764C7.10506 30.8778 7.0904 30.8815 7.06728 30.8909C7.02038 30.9101 6.93249 30.956 6.80996 31.0597C6.55389 31.2763 6.22133 31.6828 5.89051 32.3445C5.22819 33.6691 4.75 35.6653 4.75 37.9999C4.75 40.3345 5.22819 42.3306 5.89051 43.6553C6.22133 44.3169 6.55389 44.7235 6.80996 44.9401C6.93249 45.0437 7.02038 45.0896 7.06728 45.1088C7.0904 45.1183 7.10506 45.1219 7.11207 45.1234C7.1188 45.1247 7.12248 45.1249 7.125 45.1249C7.12728 45.1249 7.13486 45.1249 7.15254 45.1196C7.17193 45.1139 7.21201 45.0991 7.27267 45.0625C7.39949 44.9858 7.59706 44.8242 7.83313 44.5158C9.19503 42.7369 11.5054 40.3749 14.8104 40.3749H18.525C19.19 40.3749 19.8245 40.6537 20.2743 41.1434C20.7241 41.6332 20.948 42.2892 20.8914 42.9517L19.5108 59.1386C19.3709 60.5367 20.4686 61.7499 21.8737 61.7499L30.7935 61.75C30.5678 60.9603 29.8673 60.0773 28.5968 59.1047C27.2943 58.1075 26.1252 56.5954 26.1252 54.625C26.1252 51.9291 28.249 50.1278 30.2206 49.1419C32.3343 48.0851 35.0881 47.5 38.0002 47.5C40.9123 47.5 43.6662 48.0851 45.7799 49.1419C47.7515 50.1278 49.8752 51.9291 49.8752 54.625C49.8752 56.5954 48.7062 58.1075 47.4037 59.1047C46.1332 60.0774 45.4327 60.9603 45.207 61.75H54.1263C55.5314 61.75 56.6293 60.5368 56.4895 59.1387L56.486 59.1042L55.1086 42.9518C55.052 42.2892 55.2759 41.6333 55.7257 41.1435C56.1755 40.6537 56.81 40.375 57.475 40.375H61.1896C64.4946 40.375 66.805 42.737 68.1669 44.5159C68.4029 44.8243 68.6005 44.9859 68.7273 45.0626C68.788 45.0992 68.8281 45.114 68.8475 45.1197C68.8651 45.125 68.8726 45.125 68.8749 45.125C68.8774 45.125 68.8812 45.1248 68.8879 45.1234C68.8949 45.122 68.9096 45.1184 68.9327 45.1089C68.9796 45.0897 69.0675 45.0438 69.19 44.9402C69.4461 44.7235 69.7787 44.317 70.1095 43.6553C70.7718 42.3307 71.25 40.3346 71.25 38C71.25 35.6654 70.7718 33.6692 70.1095 32.3446C69.7787 31.6829 69.4461 31.2764 69.19 31.0598C69.0675 30.9561 68.9796 30.9102 68.9327 30.891C68.9096 30.8816 68.8949 30.8779 68.8879 30.8765C68.8812 30.8751 68.8775 30.875 68.875 30.875C68.8728 30.875 68.8654 30.8749 68.8475 30.8802C68.8281 30.886 68.788 30.9007 68.7273 30.9374C68.6005 31.014 68.4029 31.1756 68.1669 31.484C66.805 33.2629 64.4946 35.625 61.1896 35.625H57.475C56.81 35.625 56.1755 35.3462 55.7257 34.8564C55.2759 34.3666 55.052 33.7107 55.1086 33.0481L56.4892 16.8614C56.6291 15.4633 55.5314 14.2501 54.1263 14.2501H45.207C45.4327 15.0397 46.1332 15.9227 47.4037 16.8954C48.7062 17.8926 49.8752 19.4047 49.8752 21.3751C49.8752 24.071 47.7515 25.8723 45.7799 26.8581C43.6662 27.915 40.9123 28.5001 38.0002 28.5001C35.0881 28.5001 32.3343 27.915 30.2206 26.8581C28.249 25.8723 26.1252 24.071 26.1252 21.3751C26.1252 19.4047 27.2943 17.8926 28.5968 16.8954C29.8673 15.9227 30.5678 15.0397 30.7935 14.2501L21.8737 14.25Z" fill="#001B2E"/>
</svg>
