<svg width="156" height="156" viewBox="0 0 156 156" fill="none" xmlns="http://www.w3.org/2000/svg">
<g filter="url(#filter0_d_209_920)">
<circle cx="78" cy="74" r="74" fill="white"/>
</g>
<path d="M93.4364 83.6685C96.6983 79.2276 98.625 73.7451 98.625 67.8125C98.625 53.0044 86.6206 41 71.8125 41C57.0044 41 45 53.0044 45 67.8125C45 82.6206 57.0044 94.625 71.8125 94.625C77.7467 94.625 83.2306 92.6972 87.6721 89.4338L87.6685 89.4364C87.7902 89.6014 87.9257 89.7593 88.075 89.9087L103.958 105.792C105.569 107.403 108.181 107.403 109.792 105.792C111.403 104.181 111.403 101.569 109.792 99.9582L93.9087 84.075C93.7593 83.9257 93.6014 83.7902 93.4364 83.6685ZM94.5 67.8125C94.5 80.3425 84.3425 90.5 71.8125 90.5C59.2825 90.5 49.125 80.3425 49.125 67.8125C49.125 55.2825 59.2825 45.125 71.8125 45.125C84.3425 45.125 94.5 55.2825 94.5 67.8125Z" fill="#001B2E"/>
<defs>
<filter id="filter0_d_209_920" x="0" y="0" width="156" height="156" filterUnits="userSpaceOnUse" color-interpolation-filters="sRGB">
<feFlood flood-opacity="0" result="BackgroundImageFix"/>
<feColorMatrix in="SourceAlpha" type="matrix" values="0 0 0 0 0 0 0 0 0 0 0 0 0 0 0 0 0 0 127 0" result="hardAlpha"/>
<feOffset dy="4"/>
<feGaussianBlur stdDeviation="2"/>
<feComposite in2="hardAlpha" operator="out"/>
<feColorMatrix type="matrix" values="0 0 0 0 0 0 0 0 0 0 0 0 0 0 0 0 0 0 0.25 0"/>
<feBlend mode="normal" in2="BackgroundImageFix" result="effect1_dropShadow_209_920"/>
<feBlend mode="normal" in="SourceGraphic" in2="effect1_dropShadow_209_920" result="shape"/>
</filter>
</defs>
</svg>
