<svg width="66" height="66" viewBox="0 0 66 66" fill="none" xmlns="http://www.w3.org/2000/svg">
<path d="M48.4364 42.6685C51.6983 38.2276 53.625 32.7451 53.625 26.8125C53.625 12.0044 41.6206 0 26.8125 0C12.0044 0 0 12.0044 0 26.8125C0 41.6206 12.0044 53.625 26.8125 53.625C32.7467 53.625 38.2306 51.6972 42.6721 48.4338L42.6685 48.4364C42.7902 48.6014 42.9257 48.7593 43.075 48.9087L58.9582 64.7918C60.5691 66.4027 63.1809 66.4027 64.7918 64.7918C66.4027 63.1809 66.4027 60.5691 64.7918 58.9582L48.9087 43.075C48.7593 42.9257 48.6014 42.7902 48.4364 42.6685ZM49.5 26.8125C49.5 39.3425 39.3425 49.5 26.8125 49.5C14.2825 49.5 4.125 39.3425 4.125 26.8125C4.125 14.2825 14.2825 4.125 26.8125 4.125C39.3425 4.125 49.5 14.2825 49.5 26.8125Z" fill="#001B2E"/>
</svg>
