<svg width="44" height="40" viewBox="0 0 44 40" fill="none" xmlns="http://www.w3.org/2000/svg">
<g filter="url(#filter0_d_143_735)">
<path d="M4.11157 7.99974C4.56639 5.99588 6.35851 4.5 8.5 4.5H35.5C37.6415 4.5 39.4336 5.99588 39.8884 7.99974L22 18.9316L4.11157 7.99974ZM4 10.5684V26.5513L17.0572 18.5478L4 10.5684ZM19.2132 19.8654L4.43171 28.9258C5.15336 30.4476 6.70378 31.5 8.5 31.5H35.5C37.2962 31.5 38.8466 30.4476 39.5683 28.9258L24.7868 19.8654L22 21.5684L19.2132 19.8654ZM26.9428 18.5478L40 26.5513V10.5684L26.9428 18.5478Z" fill="white"/>
</g>
<defs>
<filter id="filter0_d_143_735" x="0" y="0" width="44" height="44" filterUnits="userSpaceOnUse" color-interpolation-filters="sRGB">
<feFlood flood-opacity="0" result="BackgroundImageFix"/>
<feColorMatrix in="SourceAlpha" type="matrix" values="0 0 0 0 0 0 0 0 0 0 0 0 0 0 0 0 0 0 127 0" result="hardAlpha"/>
<feOffset dy="4"/>
<feGaussianBlur stdDeviation="2"/>
<feComposite in2="hardAlpha" operator="out"/>
<feColorMatrix type="matrix" values="0 0 0 0 0 0 0 0 0 0 0 0 0 0 0 0 0 0 0.25 0"/>
<feBlend mode="normal" in2="BackgroundImageFix" result="effect1_dropShadow_143_735"/>
<feBlend mode="normal" in="SourceGraphic" in2="effect1_dropShadow_143_735" result="shape"/>
</filter>
</defs>
</svg>
