<svg width="44" height="44" viewBox="0 0 44 44" fill="none" xmlns="http://www.w3.org/2000/svg">
<g filter="url(#filter0_d_143_734)">
<path d="M22.0017 0C17.1131 0 16.4996 0.0213756 14.5796 0.108751C12.6633 0.196502 11.3553 0.49988 10.2108 0.94501C9.02693 1.40476 8.02267 2.01977 7.02216 3.02066C6.0209 4.02117 5.40589 5.02543 4.94463 6.20894C4.49838 7.35383 4.19463 8.66222 4.10838 10.5777C4.0225 12.4978 4 13.1116 4 18.0002C4 22.8887 4.02175 23.5004 4.10875 25.4204C4.19688 27.3367 4.50026 28.6447 4.94501 29.7892C5.40514 30.9731 6.02015 31.9773 7.02103 32.9778C8.02117 33.9791 9.02543 34.5956 10.2086 35.0554C11.3538 35.5005 12.6622 35.8039 14.5781 35.8916C16.4981 35.979 17.1113 36.0004 21.9994 36.0004C26.8884 36.0004 27.5 35.979 29.42 35.8916C31.3363 35.8039 32.6458 35.5005 33.7911 35.0554C34.9746 34.5956 35.9773 33.9791 36.9775 32.9778C37.9787 31.9773 38.5937 30.9731 39.055 29.7896C39.4975 28.6447 39.8012 27.3363 39.8912 25.4208C39.9775 23.5007 40 22.8887 40 18.0002C40 13.1116 39.9775 12.4981 39.8912 10.5781C39.8012 8.66184 39.4975 7.35383 39.055 6.20931C38.5937 5.02543 37.9787 4.02117 36.9775 3.02066C35.9762 2.0194 34.9749 1.40439 33.7899 0.94501C32.6424 0.49988 31.3337 0.196502 29.4174 0.108751C27.4974 0.0213756 26.8861 0 21.9961 0H22.0017ZM20.3869 3.24378C20.8662 3.24303 21.4009 3.24378 22.0017 3.24378C26.8077 3.24378 27.3774 3.26103 29.2753 3.34729C31.0303 3.42754 31.9828 3.72079 32.6173 3.96717C33.4573 4.29342 34.0562 4.68342 34.6858 5.31343C35.3158 5.94344 35.7058 6.54344 36.0328 7.38345C36.2792 8.01721 36.5728 8.96972 36.6527 10.7247C36.739 12.6223 36.7577 13.1923 36.7577 17.9961C36.7577 22.7999 36.739 23.3699 36.6527 25.2674C36.5725 27.0224 36.2792 27.9749 36.0328 28.6087C35.7066 29.4487 35.3158 30.0468 34.6858 30.6764C34.0558 31.3065 33.4577 31.6965 32.6173 32.0227C31.9835 32.2702 31.0303 32.5627 29.2753 32.643C27.3777 32.7292 26.8077 32.748 22.0017 32.748C17.1953 32.748 16.6256 32.7292 14.7281 32.643C12.9731 32.562 12.0206 32.2687 11.3857 32.0223C10.5457 31.6961 9.94569 31.3061 9.31568 30.6761C8.68567 30.0461 8.29567 29.4476 7.96867 28.6072C7.72229 27.9734 7.42866 27.0209 7.34878 25.2659C7.26253 23.3684 7.24528 22.7984 7.24528 17.9916C7.24528 13.1848 7.26253 12.6178 7.34878 10.7202C7.42904 8.96522 7.72229 8.01271 7.96867 7.3782C8.29492 6.53819 8.68567 5.93819 9.31568 5.30818C9.94569 4.67817 10.5457 4.28817 11.3857 3.96117C12.0202 3.71366 12.9731 3.42116 14.7281 3.34054C16.3886 3.26553 17.0321 3.24303 20.3869 3.23928V3.24378ZM31.61 6.23256C30.4175 6.23256 29.45 7.19895 29.45 8.39184C29.45 9.58435 30.4175 10.5519 31.61 10.5519C32.8025 10.5519 33.7701 9.58435 33.7701 8.39184C33.7701 7.19932 32.8025 6.23181 31.61 6.23181V6.23256ZM22.0017 8.75634C16.8968 8.75634 12.7578 12.8953 12.7578 18.0002C12.7578 23.1051 16.8968 27.2422 22.0017 27.2422C27.1066 27.2422 31.244 23.1051 31.244 18.0002C31.244 12.8953 27.1062 8.75634 22.0013 8.75634H22.0017ZM22.0017 12.0001C25.3152 12.0001 28.0017 14.6863 28.0017 18.0002C28.0017 21.3137 25.3152 24.0002 22.0017 24.0002C18.6878 24.0002 16.0016 21.3137 16.0016 18.0002C16.0016 14.6863 18.6878 12.0001 22.0017 12.0001Z" fill="white"/>
</g>
<defs>
<filter id="filter0_d_143_734" x="0" y="0" width="44" height="44.0004" filterUnits="userSpaceOnUse" color-interpolation-filters="sRGB">
<feFlood flood-opacity="0" result="BackgroundImageFix"/>
<feColorMatrix in="SourceAlpha" type="matrix" values="0 0 0 0 0 0 0 0 0 0 0 0 0 0 0 0 0 0 127 0" result="hardAlpha"/>
<feOffset dy="4"/>
<feGaussianBlur stdDeviation="2"/>
<feComposite in2="hardAlpha" operator="out"/>
<feColorMatrix type="matrix" values="0 0 0 0 0 0 0 0 0 0 0 0 0 0 0 0 0 0 0.25 0"/>
<feBlend mode="normal" in2="BackgroundImageFix" result="effect1_dropShadow_143_734"/>
<feBlend mode="normal" in="SourceGraphic" in2="effect1_dropShadow_143_734" result="shape"/>
</filter>
</defs>
</svg>
