<svg width="44" height="44" viewBox="0 0 44 44" fill="none" xmlns="http://www.w3.org/2000/svg">
<g filter="url(#filter0_d_143_733)">
<path d="M4 2.57881C4 1.15495 5.18353 0 6.64356 0H37.3564C38.8164 0 40 1.15496 40 2.57882V33.4212C40 34.8455 38.8164 36 37.3564 36L6.64356 36C5.18353 36 4 34.8455 4 33.4212V2.57881ZM15.1226 30.1357V13.8797H9.71941V30.1357H15.1226ZM12.421 11.6602C14.3052 11.6602 15.4779 10.4119 15.4779 8.85196C15.4428 7.25685 14.3052 6.04321 12.4567 6.04321C10.6085 6.04321 9.4 7.25685 9.4 8.85196C9.4 10.4119 10.5725 11.6602 12.3858 11.6602H12.421ZM23.4656 30.1357V21.0577C23.4656 20.5718 23.5008 20.0865 23.6434 19.7392C24.034 18.7684 24.9231 17.7631 26.4157 17.7631C28.3709 17.7631 29.153 19.2538 29.153 21.4391V30.1357H34.5557V20.8148C34.5557 15.8216 31.8901 13.4983 28.3352 13.4983C25.469 13.4983 24.1839 15.0736 23.4658 16.1813V16.2373H23.4297C23.4416 16.2187 23.4536 16.2001 23.4658 16.1813V13.8797H18.0626C18.1336 15.4051 18.0626 30.1357 18.0626 30.1357H23.4656Z" fill="white"/>
</g>
<defs>
<filter id="filter0_d_143_733" x="0" y="0" width="44" height="44" filterUnits="userSpaceOnUse" color-interpolation-filters="sRGB">
<feFlood flood-opacity="0" result="BackgroundImageFix"/>
<feColorMatrix in="SourceAlpha" type="matrix" values="0 0 0 0 0 0 0 0 0 0 0 0 0 0 0 0 0 0 127 0" result="hardAlpha"/>
<feOffset dy="4"/>
<feGaussianBlur stdDeviation="2"/>
<feComposite in2="hardAlpha" operator="out"/>
<feColorMatrix type="matrix" values="0 0 0 0 0 0 0 0 0 0 0 0 0 0 0 0 0 0 0.25 0"/>
<feBlend mode="normal" in2="BackgroundImageFix" result="effect1_dropShadow_143_733"/>
<feBlend mode="normal" in="SourceGraphic" in2="effect1_dropShadow_143_733" result="shape"/>
</filter>
</defs>
</svg>
