<svg width="44" height="44" viewBox="0 0 44 44" fill="none" xmlns="http://www.w3.org/2000/svg">
<g filter="url(#filter0_d_143_732)">
<path d="M34.6029 5.2345C31.2416 1.85602 26.7598 0 21.9871 0C12.1596 0 4.15396 8.0057 4.1454 17.8332C4.1454 20.9808 4.9665 24.0428 6.52316 26.7541L4 36L13.4597 33.5196C16.0684 34.9394 19.0021 35.6921 21.9871 35.6921H21.9957C31.8232 35.6921 39.8289 27.6864 39.8374 17.8503C39.8289 13.0862 37.9729 8.60442 34.6029 5.2345ZM21.9871 32.6728C19.3186 32.6728 16.7099 31.9544 14.4348 30.603L13.8959 30.278L8.2851 31.7491L9.78189 26.2751L9.43121 25.7106C7.94297 23.35 7.16464 20.6215 7.16464 17.8247C7.16464 9.665 13.8189 3.01069 21.9957 3.01069C25.9558 3.01069 29.6764 4.5588 32.4818 7.35567C35.2786 10.1611 36.8182 13.8817 36.8182 17.8418C36.8096 26.0271 30.1553 32.6728 21.9871 32.6728ZM30.1211 21.5709C29.6764 21.3485 27.4868 20.2708 27.0762 20.1169C26.6657 19.9715 26.3663 19.8945 26.0755 20.3393C25.7762 20.784 24.9208 21.7933 24.6643 22.0841C24.4077 22.3835 24.1425 22.4177 23.6978 22.1953C23.253 21.9729 21.8161 21.5025 20.114 19.98C18.7883 18.7997 17.8988 17.3371 17.6336 16.8924C17.377 16.4476 17.608 16.2081 17.8303 15.9857C18.0271 15.789 18.2751 15.464 18.4975 15.2074C18.7199 14.9508 18.7968 14.7627 18.9422 14.4633C19.0876 14.1639 19.0192 13.9073 18.908 13.685C18.7968 13.4626 17.9073 11.2644 17.531 10.3749C17.1718 9.5025 16.804 9.62224 16.5303 9.61369C16.2737 9.59658 15.9743 9.59658 15.675 9.59658C15.3756 9.59658 14.8966 9.70777 14.4861 10.1525C14.0755 10.5973 12.9294 11.675 12.9294 13.8731C12.9294 16.0713 14.5288 18.1839 14.7512 18.4833C14.9736 18.7826 17.8902 23.2815 22.3635 25.2145C23.4241 25.6764 24.2537 25.9501 24.9037 26.1554C25.9729 26.4975 26.9394 26.4462 27.7092 26.335C28.5645 26.2067 30.3435 25.2573 30.7198 24.2138C31.0876 23.1704 31.0876 22.2808 30.9764 22.0927C30.8652 21.9045 30.5659 21.7933 30.1211 21.5709Z" fill="white"/>
</g>
<defs>
<filter id="filter0_d_143_732" x="0" y="0" width="44" height="44" filterUnits="userSpaceOnUse" color-interpolation-filters="sRGB">
<feFlood flood-opacity="0" result="BackgroundImageFix"/>
<feColorMatrix in="SourceAlpha" type="matrix" values="0 0 0 0 0 0 0 0 0 0 0 0 0 0 0 0 0 0 127 0" result="hardAlpha"/>
<feOffset dy="4"/>
<feGaussianBlur stdDeviation="2"/>
<feComposite in2="hardAlpha" operator="out"/>
<feColorMatrix type="matrix" values="0 0 0 0 0 0 0 0 0 0 0 0 0 0 0 0 0 0 0.25 0"/>
<feBlend mode="normal" in2="BackgroundImageFix" result="effect1_dropShadow_143_732"/>
<feBlend mode="normal" in="SourceGraphic" in2="effect1_dropShadow_143_732" result="shape"/>
</filter>
</defs>
</svg>
